<?xml version="1.0" encoding="UTF-8" standalone="no"?>
<!-- Created with Inkscape (http://www.inkscape.org/) -->

<svg
   xmlns:dc="http://purl.org/dc/elements/1.1/"
   xmlns:cc="http://creativecommons.org/ns#"
   xmlns:rdf="http://www.w3.org/1999/02/22-rdf-syntax-ns#"
   xmlns:svg="http://www.w3.org/2000/svg"
   xmlns="http://www.w3.org/2000/svg"
   xmlns:sodipodi="http://sodipodi.sourceforge.net/DTD/sodipodi-0.dtd"
   xmlns:inkscape="http://www.inkscape.org/namespaces/inkscape"
   width="210mm"
   height="297mm"
   viewBox="0 0 210 297"
   version="1.1"
   id="svg8"
   inkscape:version="0.92.5 (2060ec1f9f, 2020-04-08)"
   sodipodi:docname="icon_cut.svg">
  <defs
     id="defs2">
    <inkscape:path-effect
       effect="bspline"
       id="path-effect1419"
       is_visible="true"
       weight="33.333333"
       steps="2"
       helper_size="0"
       apply_no_weight="true"
       apply_with_weight="true"
       only_selected="false" />
    <marker
       inkscape:stockid="Arrow2Send"
       orient="auto"
       refY="0.0"
       refX="0.0"
       id="Arrow2Send"
       style="overflow:visible;"
       inkscape:isstock="true">
      <path
         id="path938"
         style="fill-rule:evenodd;stroke-width:0.625;stroke-linejoin:round;stroke:#000000;stroke-opacity:1;fill:#000000;fill-opacity:1"
         d="M 8.7185878,4.0337352 L -2.2072895,0.016013256 L 8.7185884,-4.0017078 C 6.9730900,-1.6296469 6.9831476,1.6157441 8.7185878,4.0337352 z "
         transform="scale(0.3) rotate(180) translate(-2.3,0)" />
    </marker>
    <marker
       inkscape:stockid="Arrow1Mend"
       orient="auto"
       refY="0.0"
       refX="0.0"
       id="Arrow1Mend"
       style="overflow:visible;"
       inkscape:isstock="true">
      <path
         id="path914"
         d="M 0.0,0.0 L 5.0,-5.0 L -12.5,0.0 L 5.0,5.0 L 0.0,0.0 z "
         style="fill-rule:evenodd;stroke:#000000;stroke-width:1pt;stroke-opacity:1;fill:#000000;fill-opacity:1"
         transform="scale(0.4) rotate(180) translate(10,0)" />
    </marker>
    <marker
       inkscape:stockid="Arrow2Mstart"
       orient="auto"
       refY="0.0"
       refX="0.0"
       id="Arrow2Mstart"
       style="overflow:visible"
       inkscape:isstock="true">
      <path
         id="path929"
         style="fill-rule:evenodd;stroke-width:0.625;stroke-linejoin:round;stroke:#000000;stroke-opacity:1;fill:#000000;fill-opacity:1"
         d="M 8.7185878,4.0337352 L -2.2072895,0.016013256 L 8.7185884,-4.0017078 C 6.9730900,-1.6296469 6.9831476,1.6157441 8.7185878,4.0337352 z "
         transform="scale(0.6) translate(0,0)" />
    </marker>
    <inkscape:path-effect
       effect="bspline"
       id="path-effect903"
       is_visible="true"
       weight="33.333333"
       steps="2"
       helper_size="0"
       apply_no_weight="true"
       apply_with_weight="true"
       only_selected="false" />
    <inkscape:path-effect
       effect="bspline"
       id="path-effect899"
       is_visible="true"
       weight="33.333333"
       steps="2"
       helper_size="0"
       apply_no_weight="true"
       apply_with_weight="true"
       only_selected="false" />
    <inkscape:path-effect
       effect="bspline"
       id="path-effect891"
       is_visible="true"
       weight="33.333333"
       steps="2"
       helper_size="0"
       apply_no_weight="true"
       apply_with_weight="true"
       only_selected="false" />
    <inkscape:path-effect
       effect="bspline"
       id="path-effect887"
       is_visible="true"
       weight="33.333333"
       steps="2"
       helper_size="0"
       apply_no_weight="true"
       apply_with_weight="true"
       only_selected="false" />
    <inkscape:path-effect
       effect="bspline"
       id="path-effect873"
       is_visible="true"
       weight="33.333333"
       steps="2"
       helper_size="0"
       apply_no_weight="true"
       apply_with_weight="true"
       only_selected="false" />
    <inkscape:perspective
       sodipodi:type="inkscape:persp3d"
       inkscape:vp_x="15.686012 : 133.52269 : 1"
       inkscape:vp_y="6.1232337e-14 : 1000 : 0"
       inkscape:vp_z="225.68601 : 133.52269 : 1"
       inkscape:persp3d-origin="120.68601 : 84.022693 : 1"
       id="perspective815" />
  </defs>
  <sodipodi:namedview
     id="base"
     pagecolor="#ffffff"
     bordercolor="#666666"
     borderopacity="1.0"
     inkscape:pageopacity="0.0"
     inkscape:pageshadow="2"
     inkscape:zoom="1"
     inkscape:cx="271.71828"
     inkscape:cy="723.56193"
     inkscape:document-units="mm"
     inkscape:current-layer="layer1"
     showgrid="false"
     showguides="true"
     inkscape:guide-bbox="true"
     inkscape:window-width="3840"
     inkscape:window-height="2089"
     inkscape:window-x="0"
     inkscape:window-y="34"
     inkscape:window-maximized="1" />
  <metadata
     id="metadata5">
    <rdf:RDF>
      <cc:Work
         rdf:about="">
        <dc:format>image/svg+xml</dc:format>
        <dc:type
           rdf:resource="http://purl.org/dc/dcmitype/StillImage" />
        <dc:title></dc:title>
      </cc:Work>
    </rdf:RDF>
  </metadata>
  <g
     inkscape:label="Layer 1"
     inkscape:groupmode="layer"
     id="layer1">
    <rect
       style="fill:#ff650a;fill-opacity:1;stroke:#000000;stroke-width:5.11999989;stroke-miterlimit:4;stroke-dasharray:none;stroke-opacity:1"
       id="rect859"
       width="179.00952"
       height="266.09525"
       x="13.741473"
       y="11.415342"
       inkscape:export-xdpi="72"
       inkscape:export-ydpi="72" />
    <path
       style="fill:none;stroke:#000000;stroke-width:0.1;stroke-linecap:butt;stroke-linejoin:miter;stroke-miterlimit:4;stroke-dasharray:none;stroke-opacity:1"
       d="m 13.405237,97.56682 c 2.088308,0 4.176351,0 6.26413,0"
       id="path871"
       inkscape:connector-curvature="0"
       inkscape:path-effect="#path-effect873"
       inkscape:original-d="m 13.405237,97.56682 c 2.088308,-2.65e-4 4.176351,-2.65e-4 6.26413,0"
       transform="matrix(25.6,0,0,25.6,-320.02261,-2458.5655)"
       inkscape:export-xdpi="72"
       inkscape:export-ydpi="72" />
    <path
       style="fill:none;stroke:#000000;stroke-width:0.1;stroke-linecap:butt;stroke-linejoin:miter;stroke-miterlimit:4;stroke-dasharray:none;stroke-opacity:1"
       d="m 15.54,97.04898 c 0,3.07055 0,6.14137 0,9.21245"
       id="path885"
       inkscape:connector-curvature="0"
       inkscape:path-effect="#path-effect887"
       inkscape:original-d="m 15.54,97.04898 c 2.64e-4,3.07055 2.64e-4,6.14137 0,9.21245"
       transform="matrix(25.6,0,0,25.6,-321.29656,-2458.5655)"
       inkscape:export-xdpi="72"
       inkscape:export-ydpi="72" />
    <path
       style="fill:none;stroke:#000000;stroke-width:0.1;stroke-linecap:butt;stroke-linejoin:miter;stroke-miterlimit:4;stroke-dasharray:none;stroke-opacity:1"
       d="m 17.626,97.04898 c 0,3.07055 0,6.14137 0,9.21245"
       id="path889"
       inkscape:connector-curvature="0"
       inkscape:path-effect="#path-effect891"
       inkscape:original-d="m 17.626,97.04898 c 2.64e-4,3.07055 2.64e-4,6.14137 0,9.21245"
       transform="matrix(25.6,0,0,25.6,-321.29656,-2458.5655)"
       inkscape:export-xdpi="72"
       inkscape:export-ydpi="72" />
    <g
       id="g1459"
       transform="matrix(25.6,0,0,25.6,-308.2245,-2272.9807)"
       inkscape:export-xdpi="72"
       inkscape:export-ydpi="72">
      <g
         transform="rotate(25,28.60111,80.878771)"
         id="g1409">
        <rect
           style="fill:#000000;fill-opacity:1;stroke:#000000;stroke-width:0.1;stroke-miterlimit:4;stroke-dasharray:none;stroke-opacity:1"
           id="rect893"
           width="0.14174107"
           height="4.4412203"
           x="23.19829"
           y="98.279015" />
        <path
           style="fill:none;stroke:#000000;stroke-width:0.01;stroke-linecap:butt;stroke-linejoin:miter;stroke-miterlimit:4;stroke-dasharray:none;stroke-opacity:1"
           d="m 23.150008,102.76689 c 0.0406,0.0846 0.08125,0.16939 0.121956,0.25425"
           id="path897"
           inkscape:connector-curvature="0"
           inkscape:path-effect="#path-effect899"
           inkscape:original-d="m 23.150008,102.76689 c 0.04092,0.0845 0.08157,0.16924 0.121956,0.25425"
           transform="translate(0.0025002)" />
        <path
           style="fill:#000000;fill-opacity:1;stroke:#000000;stroke-width:0.01;stroke-linecap:butt;stroke-linejoin:miter;stroke-miterlimit:4;stroke-dasharray:none;stroke-opacity:1"
           d="m 23.389787,102.76896 c -0.03913,0.0837 -0.0784,0.1678 -0.117823,0.25218"
           id="path901"
           inkscape:connector-curvature="0"
           inkscape:path-effect="#path-effect903"
           inkscape:original-d="m 23.389787,102.76896 c -0.03901,0.0838 -0.07828,0.16785 -0.117823,0.25218"
           transform="translate(-0.00543404)" />
        <path
           style="fill:#000000;fill-opacity:1;stroke:#000000;stroke-width:0;stroke-miterlimit:4;stroke-dasharray:none;stroke-opacity:1"
           d="m 87.742963,388.85706 -0.205679,-0.42871 0.406862,-0.001 c 0.223774,-5.4e-4 0.407459,-3.9e-4 0.408189,3.4e-4 0.0019,0.002 -0.398416,0.85808 -0.401273,0.85808 -0.0013,0 -0.09498,-0.19292 -0.208099,-0.42871 z"
           id="path1307"
           inkscape:connector-curvature="0"
           transform="scale(0.26458333)" />
        <path
           style="fill:#000000;fill-opacity:1;stroke:#000000;stroke-width:0;stroke-miterlimit:4;stroke-dasharray:none;stroke-opacity:1"
           d="m 87.935924,389.25159 c -0.02908,-0.0583 -0.379933,-0.78693 -0.389357,-0.80859 l -0.0055,-0.0127 h 0.404101 0.404101 l -0.02266,0.0498 c -0.03181,0.0699 -0.222948,0.47951 -0.289377,0.62011 -0.03045,0.0645 -0.06161,0.13082 -0.06924,0.14747 -0.0076,0.0167 -0.015,0.0303 -0.01638,0.0303 -0.0014,0 -0.0084,-0.0119 -0.01566,-0.0264 z"
           id="path1309"
           inkscape:connector-curvature="0"
           transform="scale(0.26458333)" />
        <path
           style="fill:#000000;fill-opacity:1;stroke:#000000;stroke-width:0;stroke-miterlimit:4;stroke-dasharray:none;stroke-opacity:1"
           d="m 87.936656,389.36943 c -0.01381,-0.006 -0.01475,-0.008 -0.0086,-0.022 0.0035,-0.008 -0.02492,-0.0694 -0.216797,-0.46929 l -0.220847,-0.46032 v -2.84535 -2.84534 h 0.455078 0.455078 v 2.84765 c 0,1.56622 -0.0015,2.84766 -0.0033,2.84766 -0.0018,0 -0.0033,0.002 -0.0033,0.005 -1.6e-5,0.003 -0.09533,0.20879 -0.211802,0.45801 -0.210754,0.45094 -0.211746,0.45318 -0.206034,0.46526 0.0057,0.012 0.0056,0.0122 -0.0077,0.0186 -0.01567,0.007 -0.01522,0.007 -0.03176,2.4e-4 z m 0.220886,-0.51146 0.202583,-0.43353 -0.206064,-10e-4 c -0.113336,-5.5e-4 -0.299857,-5.5e-4 -0.414492,0 l -0.208427,10e-4 0.209104,0.43623 c 0.115008,0.23992 0.210367,0.43501 0.21191,0.43352 0.0015,-0.001 0.09397,-0.19779 0.205386,-0.43622 z"
           id="path1311"
           inkscape:connector-curvature="0"
           transform="scale(0.26458333)" />
        <path
           style="fill:#000000;fill-opacity:1;stroke:#000000;stroke-width:0;stroke-miterlimit:4;stroke-dasharray:none;stroke-opacity:1"
           d="m 87.937632,389.37027 c -0.01071,-0.005 -0.01174,-0.007 -0.01193,-0.0242 -2.42e-4,-0.0223 0.02022,0.0221 -0.24931,-0.53993 l -0.186027,-0.38788 v -2.84552 -2.84552 h 0.455078 0.455078 v 2.84765 c 0,1.56622 -0.0015,2.84766 -0.0033,2.84766 -0.0018,0 -0.0033,0.002 -0.0033,0.005 0,0.003 -0.09194,0.20177 -0.204303,0.44238 -0.112368,0.24061 -0.207086,0.44495 -0.210485,0.4541 -0.0048,0.0129 -0.0052,0.0191 -0.0019,0.0278 0.004,0.0106 0.0034,0.0116 -0.009,0.0176 -0.01561,0.007 -0.01547,0.007 -0.0306,9.9e-4 z m 0.03026,-0.10696 c 0.0076,-0.0166 0.09837,-0.21107 0.201732,-0.43204 0.103362,-0.22097 0.18793,-0.40334 0.18793,-0.40527 0,-0.002 -0.17122,-0.004 -0.412109,-0.004 -0.22666,0 -0.41211,10e-4 -0.41211,0.003 0,0.002 0.08102,0.1718 0.180054,0.37793 0.09903,0.20614 0.192461,0.40073 0.207625,0.43242 0.01516,0.0317 0.02881,0.0576 0.03032,0.0576 0.0015,0 0.009,-0.0136 0.01655,-0.0303 z"
           id="path1313"
           inkscape:connector-curvature="0"
           transform="scale(0.26458333)" />
        <path
           style="fill:#000000;fill-opacity:1;stroke:#000000;stroke-width:0;stroke-miterlimit:4;stroke-dasharray:none;stroke-opacity:1"
           d="m 87.935679,389.36993 c -0.0082,-0.005 -0.0098,-0.008 -0.01007,-0.0243 -3.55e-4,-0.0217 0.01782,0.0176 -0.253053,-0.54716 l -0.182185,-0.37985 v -2.84574 -2.84573 h 0.455078 0.455078 v 2.84765 c 0,1.56622 -0.0015,2.84766 -0.0033,2.84766 -0.0018,0 -0.0033,0.002 -0.0033,0.005 0,0.003 -0.08363,0.1842 -0.185852,0.40332 -0.258637,0.55444 -0.238502,0.50857 -0.230104,0.52426 0.0035,0.007 0.0022,0.009 -0.0095,0.0141 -0.01628,0.008 -0.02013,0.008 -0.03287,8e-4 z m 0.229819,-0.53052 c 0.103219,-0.2208 0.188776,-0.40493 0.190127,-0.40918 0.0024,-0.008 -6.61e-4,-0.008 -0.409917,-0.008 -0.226805,0 -0.412373,10e-4 -0.412373,0.002 0,10e-4 0.06752,0.14331 0.150039,0.31543 0.224343,0.46793 0.260595,0.5429 0.265384,0.54883 0.0035,0.004 0.0069,-1.5e-4 0.01672,-0.0215 0.0068,-0.0148 0.0968,-0.20754 0.200019,-0.42833 z"
           id="path1315"
           inkscape:connector-curvature="0"
           transform="scale(0.26458333)" />
        <path
           style="fill:#000000;fill-opacity:1;stroke:#000000;stroke-width:0;stroke-miterlimit:4;stroke-dasharray:none;stroke-opacity:1"
           d="m 87.666954,388.42741 c 0.01441,-7.5e-4 0.03902,-7.5e-4 0.05469,-1e-5 0.01567,7.4e-4 0.0039,0.001 -0.0262,0.001 -0.03008,10e-6 -0.0429,-6e-4 -0.02849,-0.001 z"
           id="path1317"
           inkscape:connector-curvature="0"
           transform="scale(0.26458333)" />
        <path
           style="fill:#000000;fill-opacity:1;stroke:#000000;stroke-width:0;stroke-miterlimit:4;stroke-dasharray:none;stroke-opacity:1"
           d="m 87.900571,389.17933 c -0.02644,-0.0542 -0.103822,-0.21465 -0.171966,-0.35645 -0.06814,-0.1418 -0.138205,-0.28754 -0.155693,-0.32388 -0.01749,-0.0363 -0.03119,-0.0667 -0.03046,-0.0674 7.35e-4,-7.3e-4 0.182398,-8.9e-4 0.403695,-3.4e-4 l 0.402358,10e-4 -0.01849,0.041 c -0.02281,0.0506 -0.216872,0.46653 -0.308461,0.66113 -0.03716,0.079 -0.06877,0.14356 -0.07024,0.14356 -0.0015,0 -0.0243,-0.0444 -0.05074,-0.0986 z"
           id="path1319"
           inkscape:connector-curvature="0"
           transform="scale(0.26458333)" />
        <path
           style="fill:#000000;fill-opacity:1;stroke:#000000;stroke-width:0;stroke-miterlimit:4;stroke-dasharray:none;stroke-opacity:1"
           d="m 87.928212,389.23597 c -0.06162,-0.12341 -0.387397,-0.80273 -0.385751,-0.80438 7.3e-4,-7.3e-4 0.18251,-8.8e-4 0.403955,-3.3e-4 l 0.402628,10e-4 -0.03319,0.0721 c -0.132601,0.28825 -0.361091,0.77356 -0.364199,0.77356 -0.0014,0 -0.01191,-0.0189 -0.02344,-0.042 z"
           id="path1321"
           inkscape:connector-curvature="0"
           transform="scale(0.26458333)" />
        <path
           style="fill:#000000;fill-opacity:1;stroke:#000000;stroke-width:0;stroke-miterlimit:4;stroke-dasharray:none;stroke-opacity:1"
           d="m 87.928166,389.23597 c -0.06198,-0.12386 -0.387507,-0.80257 -0.385768,-0.80431 7.65e-4,-7.7e-4 0.182578,-9.5e-4 0.40403,-4e-4 l 0.402638,10e-4 -0.03039,0.0664 c -0.108416,0.2369 -0.363853,0.7793 -0.367004,0.7793 -0.0014,0 -0.01195,-0.0189 -0.02351,-0.042 z"
           id="path1323"
           inkscape:connector-curvature="0"
           transform="scale(0.26458333)" />
        <path
           style="fill:#000000;fill-opacity:1;stroke:#000000;stroke-width:0;stroke-miterlimit:4;stroke-dasharray:none;stroke-opacity:1"
           d="m 87.934449,389.36934 c -0.0091,-0.005 -0.0106,-0.008 -0.0087,-0.0166 0.004,-0.0184 0.01563,0.007 -0.257121,-0.56178 l -0.178297,-0.37174 v -2.84603 -2.84603 h 0.455078 0.455078 v 2.8456 2.84561 l -0.106997,0.22959 c -0.05885,0.12627 -0.132867,0.28496 -0.164486,0.35264 -0.106489,0.22792 -0.150796,0.32526 -0.152946,0.33601 -0.0012,0.006 -2.93e-4,0.0141 0.002,0.0183 0.0035,0.007 0.0022,0.009 -0.0095,0.0141 -0.01646,0.008 -0.01998,0.008 -0.0341,2.1e-4 z m 0.05713,-0.15876 c 0.188577,-0.39849 0.365064,-0.78234 0.360914,-0.78498 -0.005,-0.003 -0.819159,-0.004 -0.819159,-10e-4 0,0.003 0.350568,0.73457 0.392944,0.81945 0.0126,0.0252 0.02403,0.0459 0.02539,0.0459 0.0014,0 0.01932,-0.0356 0.03991,-0.0791 z"
           id="path1325"
           inkscape:connector-curvature="0"
           transform="scale(0.26458333)" />
        <path
           style="fill:#000000;fill-opacity:1;stroke:#000000;stroke-width:0;stroke-miterlimit:4;stroke-dasharray:none;stroke-opacity:1"
           d="m 87.934449,389.36934 c -0.0092,-0.005 -0.01061,-0.008 -0.0086,-0.0168 0.0039,-0.0176 0.01501,0.007 -0.261083,-0.56911 l -0.174389,-0.36368 v -2.84628 -2.84627 h 0.455078 0.455078 v 2.84594 2.84594 l -0.174321,0.37379 c -0.271239,0.5816 -0.255341,0.54575 -0.248609,0.56053 0.0039,0.009 0.0031,0.01 -0.0092,0.0158 -0.01631,0.008 -0.01986,0.008 -0.03396,1.5e-4 z m 0.04412,-0.13142 c 0.05142,-0.10853 0.303393,-0.64877 0.334617,-0.71742 0.01799,-0.0396 0.03207,-0.0726 0.0313,-0.0733 -7.76e-4,-7.8e-4 -0.0063,0.01 -0.01237,0.0231 -0.06001,0.13413 -0.377262,0.8077 -0.380426,0.8077 -0.0033,0 -0.04258,-0.079 -0.142015,-0.28516 -0.115664,-0.23984 -0.26852,-0.55918 -0.26852,-0.56098 0,-8.3e-4 0.181878,-0.002 0.404174,-0.002 0.383134,0 0.404064,3.6e-4 0.402049,0.007 -0.0019,0.006 -0.0016,0.006 0.0024,-2.9e-4 0.0025,-0.004 0.0034,-0.008 0.0019,-0.01 -0.0037,-0.004 -0.811371,-0.005 -0.814638,-0.002 -0.0027,0.003 0.0058,0.0212 0.204255,0.43488 0.162532,0.33875 0.20689,0.42947 0.209993,0.42947 0.0015,0 0.01374,-0.0233 0.02723,-0.0518 z"
           id="path1327"
           inkscape:connector-curvature="0"
           transform="scale(0.26458333)" />
        <path
           style="fill:#000000;fill-opacity:1;stroke:#000000;stroke-width:0;stroke-miterlimit:4;stroke-dasharray:none;stroke-opacity:1"
           d="m 87.935055,389.36966 c -0.0088,-0.005 -0.01037,-0.008 -0.01025,-0.0223 1.84e-4,-0.0218 0.01258,0.005 -0.308838,-0.66525 l -0.125601,-0.26188 v -2.84652 -2.84652 h 0.455078 0.455078 v 2.84621 2.84622 l -0.183248,0.39304 c -0.260464,0.55866 -0.246195,0.52643 -0.239541,0.54103 0.0037,0.008 0.0028,0.01 -0.0093,0.0155 -0.01619,0.008 -0.0199,0.008 -0.03336,4.7e-4 z m 0.175737,-0.41451 c 0.183127,-0.39182 0.231954,-0.49799 0.229943,-0.5 -9.06e-4,-9.1e-4 -0.0056,0.008 -0.0105,0.019 -0.03785,0.0882 -0.375136,0.80383 -0.378838,0.80383 -0.0028,0 -0.08688,-0.17018 -0.189617,-0.38383 -0.03178,-0.0661 -0.05836,-0.11958 -0.05908,-0.11887 -0.0011,10e-4 0.06081,0.131 0.20331,0.42647 0.01864,0.0386 0.0367,0.0745 0.04014,0.0798 l 0.0063,0.01 0.0088,-0.0173 c 0.0048,-0.01 0.07215,-0.1529 0.14961,-0.31863 z m -0.432484,-0.2344 c -0.01291,-0.0255 -0.02357,-0.045 -0.02368,-0.0434 -2.98e-4,0.004 0.04416,0.0927 0.04577,0.0911 7.57e-4,-7.6e-4 -0.0092,-0.0222 -0.0221,-0.0477 z m -0.04492,-0.0937 c -0.01184,-0.0233 -0.02161,-0.0411 -0.02173,-0.0395 -2.97e-4,0.004 0.04024,0.0849 0.04187,0.0833 7.6e-4,-7.6e-4 -0.0083,-0.0205 -0.02014,-0.0438 z m -0.04297,-0.0898 c -0.01184,-0.0233 -0.02161,-0.0411 -0.02173,-0.0395 -2.97e-4,0.004 0.04024,0.0849 0.04187,0.0833 7.6e-4,-7.6e-4 -0.0083,-0.0205 -0.02014,-0.0438 z m -0.03515,-0.0742 c -0.0076,-0.0147 -0.01382,-0.0255 -0.01393,-0.0239 -2.91e-4,0.004 0.02459,0.0537 0.02623,0.0521 7.87e-4,-7.9e-4 -0.0048,-0.0135 -0.0123,-0.0282 z m 0.796463,-0.0358 c -0.0044,-0.004 -0.811705,-0.003 -0.813184,10e-4 -8.65e-4,0.003 0.135363,0.004 0.404838,0.003 0.386078,-9.6e-4 0.406035,-6.7e-4 0.404002,0.006 -0.0019,0.006 -0.0017,0.006 0.0024,-2.5e-4 0.0025,-0.004 0.0034,-0.008 0.0019,-0.01 z"
           id="path1329"
           inkscape:connector-curvature="0"
           transform="scale(0.26458333)" />
        <path
           style="fill:#000000;fill-opacity:1;stroke:#000000;stroke-width:0;stroke-miterlimit:4;stroke-dasharray:none;stroke-opacity:1"
           d="m 87.934703,389.36947 c -0.009,-0.005 -0.01074,-0.008 -0.01074,-0.0214 0,-0.009 -0.0045,-0.0263 -0.01003,-0.0394 -0.01169,-0.0278 -0.112427,-0.23944 -0.294283,-0.61834 l -0.129281,-0.26936 v -2.84685 -2.84685 h 0.455078 0.455078 v 2.84639 2.84639 l -0.195895,0.42021 c -0.234394,0.50279 -0.231811,0.49696 -0.226692,0.51165 0.0036,0.0102 0.0028,0.0115 -0.0096,0.0174 -0.01621,0.008 -0.01983,0.008 -0.03366,2.6e-4 z m 0.118087,-0.29072 c 0.05371,-0.11463 0.09707,-0.20901 0.09634,-0.20973 -7.27e-4,-7.3e-4 -0.01847,0.0352 -0.03944,0.0798 -0.107002,0.22769 -0.155699,0.32916 -0.157963,0.32916 -0.0014,0 -0.02438,-0.0439 -0.05112,-0.0975 -0.02674,-0.0536 -0.04913,-0.097 -0.04977,-0.0963 -0.0015,10e-4 0.09206,0.19422 0.09746,0.20074 0.0023,0.003 0.0047,0.004 0.0055,0.004 7.45e-4,-7.4e-4 0.0453,-0.0951 0.09902,-0.20976 z m -0.226045,-0.0494 c -0.01291,-0.0255 -0.02356,-0.045 -0.02368,-0.0434 -2.98e-4,0.004 0.04416,0.0927 0.04577,0.0911 7.57e-4,-7.5e-4 -0.0092,-0.0222 -0.0221,-0.0477 z m -0.05273,-0.10938 c -0.01184,-0.0233 -0.02161,-0.0411 -0.02173,-0.0395 -2.97e-4,0.004 0.04024,0.0849 0.04187,0.0833 7.6e-4,-7.6e-4 -0.0083,-0.0205 -0.02014,-0.0438 z m 0.403476,-0.10881 c 0,-0.002 -0.006,0.008 -0.01329,0.0215 -0.0073,0.014 -0.01329,0.0272 -0.01329,0.0293 0,0.002 0.006,-0.008 0.01329,-0.0215 0.0073,-0.014 0.01329,-0.0272 0.01329,-0.0293 z m -0.448395,0.0151 c -0.0086,-0.0169 -0.01577,-0.0294 -0.01588,-0.0278 -2.93e-4,0.004 0.0285,0.0615 0.03014,0.0599 7.77e-4,-7.8e-4 -0.0056,-0.0152 -0.01426,-0.0321 z m 0.475738,-0.0736 c 0,-0.002 -0.006,0.008 -0.01329,0.0215 -0.0073,0.014 -0.01329,0.0272 -0.01329,0.0293 0,0.002 0.006,-0.008 0.01329,-0.0215 0.0073,-0.014 0.01329,-0.0272 0.01329,-0.0293 z m -0.524568,-0.0279 c -0.0097,-0.019 -0.01771,-0.0333 -0.01782,-0.0317 -2.94e-4,0.004 0.03242,0.0693 0.03405,0.0677 7.71e-4,-7.7e-4 -0.0065,-0.017 -0.01623,-0.036 z m 0.551912,-0.0307 c 0,-0.002 -0.006,0.008 -0.01329,0.0215 -0.0073,0.014 -0.01329,0.0272 -0.01329,0.0293 0,0.002 0.006,-0.008 0.01329,-0.0215 0.0073,-0.014 0.01329,-0.0272 0.01329,-0.0293 z m 0.02345,-0.0508 c 0,-0.002 -0.0051,0.006 -0.01135,0.0176 -0.0062,0.0118 -0.01135,0.0232 -0.01135,0.0254 0,0.002 0.0051,-0.006 0.01135,-0.0176 0.0062,-0.0118 0.01135,-0.0232 0.01135,-0.0254 z m -0.622235,-0.0162 c -0.0097,-0.019 -0.01771,-0.0333 -0.01782,-0.0317 -2.94e-4,0.004 0.03242,0.0693 0.03405,0.0677 7.71e-4,-7.7e-4 -0.0065,-0.017 -0.01623,-0.036 z m 0.649579,-0.0424 c 0,-0.002 -0.0051,0.006 -0.01135,0.0176 -0.0062,0.0118 -0.01135,0.0232 -0.01135,0.0254 0,0.002 0.0051,-0.006 0.01135,-0.0176 0.0062,-0.0118 0.01135,-0.0232 0.01135,-0.0254 z m 0.02344,-0.0508 c 0,-0.002 -0.0051,0.006 -0.01135,0.0176 -0.0062,0.0118 -0.01135,0.0232 -0.01135,0.0254 0,0.002 0.0051,-0.006 0.01135,-0.0176 0.0062,-0.0118 0.01135,-0.0232 0.01135,-0.0254 z m -0.71403,0.007 c -0.0086,-0.0169 -0.01577,-0.0294 -0.01588,-0.0278 -2.93e-4,0.004 0.0285,0.0615 0.03014,0.0599 7.78e-4,-7.8e-4 -0.0056,-0.0152 -0.01426,-0.0321 z m 0.733577,-0.0502 c 0,-0.002 -0.0042,0.004 -0.0094,0.0137 -0.0052,0.01 -0.0094,0.0193 -0.0094,0.0215 0,0.002 0.0042,-0.004 0.0094,-0.0137 0.0052,-0.01 0.0094,-0.0193 0.0094,-0.0215 z m -0.77068,-0.0279 c -0.0054,-0.0104 -0.0099,-0.0177 -0.01004,-0.0161 -2.84e-4,0.004 0.01674,0.0382 0.0184,0.0365 8.17e-4,-8.1e-4 -0.0029,-0.01 -0.0084,-0.0204 z m 0.782632,6e-4 c 0,-0.002 -0.0017,-0.001 -0.0038,0.002 -0.0021,0.003 -0.0038,0.008 -0.0038,0.01 0,0.002 0.0017,10e-4 0.0038,-0.002 0.0021,-0.003 0.0038,-0.008 0.0038,-0.01 z m -0.04285,-0.0373 c -0.07832,-0.003 -0.61192,-0.003 -0.693359,0 -0.03438,10e-4 0.121191,0.003 0.345703,0.003 0.224512,1e-5 0.380957,-10e-4 0.347656,-0.003 z"
           id="path1331"
           inkscape:connector-curvature="0"
           transform="scale(0.26458333)" />
        <path
           style="fill:#000000;fill-opacity:1;stroke:#000000;stroke-width:0;stroke-miterlimit:4;stroke-dasharray:none;stroke-opacity:1"
           d="m 87.935197,389.36973 c -0.0086,-0.005 -0.01055,-0.009 -0.0121,-0.0262 -0.0022,-0.024 -0.0089,-0.0386 -0.262407,-0.56723 l -0.170326,-0.35519 v -2.84696 -2.84696 h 0.455078 0.455078 v 2.84655 2.84655 l -0.191147,0.41029 c -0.251943,0.54078 -0.23703,0.50699 -0.230888,0.52314 0.0032,0.008 0.0021,0.0102 -0.0094,0.0157 -0.01579,0.007 -0.02056,0.008 -0.03385,3.1e-4 z m 0.07337,-0.19711 c 0.02867,-0.0609 0.05152,-0.1114 0.05077,-0.11215 -7.46e-4,-7.4e-4 -0.01236,0.022 -0.02582,0.0505 -0.05846,0.1238 -0.07966,0.16704 -0.08191,0.16704 -0.0013,0 -0.02251,-0.0403 -0.0471,-0.0897 -0.02459,-0.0493 -0.04522,-0.0892 -0.04585,-0.0885 -0.003,0.003 0.0894,0.18644 0.09332,0.18513 0.0025,-8.1e-4 0.02791,-0.0513 0.05658,-0.11227 z m -0.183774,-0.14719 c -0.0097,-0.019 -0.01771,-0.0333 -0.01782,-0.0317 -2.95e-4,0.004 0.03242,0.0693 0.03405,0.0677 7.7e-4,-7.7e-4 -0.0065,-0.017 -0.01623,-0.036 z m 0.266748,-0.0307 c 0,-0.002 -0.0069,0.009 -0.01524,0.0254 -0.0084,0.0161 -0.01524,0.031 -0.01524,0.0332 0,0.002 0.0069,-0.009 0.01524,-0.0254 0.0084,-0.0161 0.01524,-0.0311 0.01524,-0.0332 z m 0.02735,-0.0586 c 0,-0.002 -0.006,0.008 -0.01329,0.0215 -0.0073,0.014 -0.01329,0.0272 -0.01329,0.0293 0,0.002 0.006,-0.008 0.01329,-0.0215 0.0073,-0.014 0.01329,-0.0272 0.01329,-0.0293 z m -0.342926,-0.0123 c -0.0086,-0.0169 -0.01577,-0.0294 -0.01588,-0.0278 -2.93e-4,0.004 0.0285,0.0615 0.03014,0.0599 7.77e-4,-7.8e-4 -0.0056,-0.0152 -0.01426,-0.0321 z m 0.366389,-0.0385 c 0,-0.002 -0.0042,0.004 -0.0094,0.0137 -0.0052,0.01 -0.0094,0.0193 -0.0094,0.0215 0,0.002 0.0042,-0.004 0.0094,-0.0137 0.0052,-0.01 0.0094,-0.0193 0.0094,-0.0215 z m 0.03125,-0.0664 c 0,-0.002 -0.0042,0.004 -0.0094,0.0137 -0.0052,0.01 -0.0094,0.0193 -0.0094,0.0215 0,0.002 0.0042,-0.004 0.0094,-0.0137 0.0052,-0.01 0.0094,-0.0193 0.0094,-0.0215 z m -0.446461,0.003 c -0.0054,-0.0104 -0.0099,-0.0177 -0.01004,-0.0161 -2.84e-4,0.004 0.01674,0.0382 0.0184,0.0365 8.17e-4,-8.2e-4 -0.0029,-0.01 -0.0084,-0.0204 z m 0.473805,-0.0619 c 0,-0.002 -0.0042,0.004 -0.0094,0.0137 -0.0052,0.01 -0.0094,0.0193 -0.0094,0.0215 0,0.002 0.0042,-0.004 0.0094,-0.0137 0.0052,-0.01 0.0094,-0.0193 0.0094,-0.0215 z m -0.520685,-0.0357 c -0.0076,-0.0147 -0.01382,-0.0255 -0.01393,-0.0239 -2.91e-4,0.004 0.02459,0.0537 0.02623,0.0521 7.87e-4,-7.9e-4 -0.0048,-0.0135 -0.0123,-0.0282 z m 0.548029,-0.0229 c 0,-0.002 -0.0042,0.004 -0.0094,0.0137 -0.0052,0.01 -0.0094,0.0193 -0.0094,0.0215 0,0.002 0.0042,-0.004 0.0094,-0.0137 0.0052,-0.01 0.0094,-0.0193 0.0094,-0.0215 z m 0.02346,-0.0508 c 0,-0.002 -0.0034,0.002 -0.0075,0.01 -0.0041,0.008 -0.0075,0.0154 -0.0075,0.0176 0,0.002 0.0034,-0.002 0.0075,-0.01 0.0041,-0.008 0.0075,-0.0154 0.0075,-0.0176 z m -0.618367,-0.024 c -0.0076,-0.0147 -0.01382,-0.0255 -0.01393,-0.0239 -2.91e-4,0.004 0.02459,0.0538 0.02623,0.0521 7.87e-4,-7.8e-4 -0.0048,-0.0135 -0.0123,-0.0282 z m 0.645711,-0.0346 c 0,-0.002 -0.0034,0.002 -0.0075,0.01 -0.0041,0.008 -0.0075,0.0154 -0.0075,0.0176 0,0.002 0.0034,-0.002 0.0075,-0.01 0.0041,-0.008 0.0075,-0.0154 0.0075,-0.0176 z m 0.02344,-0.0508 c 0,-0.002 -0.0034,0.002 -0.0075,0.01 -0.0041,0.008 -0.0075,0.0154 -0.0075,0.0176 0,0.002 0.0034,-0.002 0.0075,-0.01 0.0041,-0.008 0.0075,-0.0154 0.0075,-0.0176 z m -0.710162,-5.8e-4 c -0.0065,-0.0126 -0.01188,-0.0216 -0.01198,-0.02 -2.88e-4,0.004 0.02066,0.046 0.02232,0.0443 7.99e-4,-8e-4 -0.0039,-0.0117 -0.01034,-0.0243 z m 0.729744,-0.0424 c 0,-0.002 -0.0025,4.9e-4 -0.0056,0.006 -0.0031,0.005 -0.0056,0.0115 -0.0056,0.0137 0,0.002 0.0025,-4.8e-4 0.0056,-0.006 0.0031,-0.005 0.0056,-0.0115 0.0056,-0.0137 z m -0.766839,-0.0358 c -0.0033,-0.006 -0.0061,-0.01 -0.0062,-0.008 -2.65e-4,0.005 0.0088,0.0228 0.01055,0.0211 8.94e-4,-9e-4 -0.0011,-0.007 -0.0044,-0.0127 z m 0.685085,-0.0367 c -0.07414,-0.004 -0.518085,-0.004 -0.585938,0 -0.029,0.002 0.103711,0.003 0.294922,0.003 0.191211,0 0.322168,-10e-4 0.291016,-0.003 z"
           id="path1333"
           inkscape:connector-curvature="0"
           transform="scale(0.26458333)" />
        <path
           style="fill:#000000;fill-opacity:1;stroke:#000000;stroke-width:0;stroke-miterlimit:4;stroke-dasharray:none;stroke-opacity:1"
           d="m 87.934703,389.36947 c -0.0084,-0.005 -0.01074,-0.009 -0.01074,-0.0189 0,-0.007 -0.0024,-0.02 -0.0054,-0.0285 -0.0079,-0.0224 -0.06982,-0.15336 -0.259798,-0.54948 l -0.168351,-0.35104 v -2.84721 -2.8472 h 0.455086 0.455086 l -9.85e-4,2.85058 -9.84e-4,2.85059 -0.181082,0.38672 c -0.24654,0.52651 -0.244963,0.52296 -0.238929,0.53883 0.0031,0.008 0.002,0.0101 -0.0095,0.0155 -0.01589,0.008 -0.02053,0.008 -0.03434,6e-5 z m 0.05717,-0.16231 c 0.02084,-0.0432 0.03724,-0.0793 0.03646,-0.08 -7.86e-4,-7.9e-4 -0.01784,0.0328 -0.03789,0.0747 -0.02005,0.0419 -0.03773,0.0761 -0.03928,0.0761 -0.0016,0 -0.005,-0.005 -0.0077,-0.0118 -0.0027,-0.007 -0.0065,-0.0128 -0.0084,-0.014 -0.0019,-10e-4 4.2e-4,0.006 0.0052,0.0157 0.0048,0.01 0.0098,0.0179 0.0112,0.0179 0.0014,0 0.01957,-0.0354 0.04041,-0.0786 z m -0.09873,-0.0411 c -0.0172,-0.0341 -0.03137,-0.0606 -0.03148,-0.059 -3.01e-4,0.004 0.05979,0.12395 0.0614,0.12234 7.46e-4,-7.5e-4 -0.01272,-0.0292 -0.02992,-0.0633 z m 0.163244,-0.0971 c 0,-0.002 -0.006,0.008 -0.01329,0.0215 -0.0073,0.014 -0.01329,0.0272 -0.01329,0.0293 0,0.002 0.006,-0.008 0.01329,-0.0215 0.0073,-0.014 0.01329,-0.0272 0.01329,-0.0293 z m -0.231597,-0.0435 c -0.0076,-0.0147 -0.01382,-0.0255 -0.01393,-0.0239 -2.91e-4,0.004 0.02459,0.0537 0.02623,0.0521 7.87e-4,-7.9e-4 -0.0047,-0.0135 -0.0123,-0.0282 z m 0.262857,-0.0229 c 0,-0.002 -0.0051,0.006 -0.01135,0.0176 -0.0062,0.0118 -0.01135,0.0232 -0.01135,0.0254 0,0.002 0.0051,-0.006 0.01135,-0.0176 0.0062,-0.0118 0.01135,-0.0232 0.01135,-0.0254 z m 0.02736,-0.0586 c 0,-0.002 -0.0042,0.004 -0.0094,0.0137 -0.0052,0.01 -0.0094,0.0193 -0.0094,0.0215 0,0.002 0.0042,-0.004 0.0094,-0.0137 0.0052,-0.01 0.0094,-0.0193 0.0094,-0.0215 z m -0.340993,-0.024 c -0.0054,-0.0104 -0.0099,-0.0177 -0.01004,-0.0161 -2.84e-4,0.004 0.01674,0.0382 0.0184,0.0365 8.17e-4,-8.1e-4 -0.0029,-0.01 -0.0084,-0.0204 z m 0.364506,-0.0267 c 0,-0.002 -0.0025,4.9e-4 -0.0056,0.006 -0.0031,0.005 -0.0056,0.0115 -0.0056,0.0137 0,0.002 0.0025,-4.8e-4 0.0056,-0.006 0.0031,-0.005 0.0056,-0.0115 0.0056,-0.0137 z m 0.02586,-0.0531 c 0.0034,-0.007 0.0056,-0.0128 0.0047,-0.0136 -8.47e-4,-8.4e-4 -0.0045,0.005 -0.008,0.0121 -0.008,0.0168 -0.0053,0.0181 0.0033,0.002 z m -0.437225,-0.0179 c -0.0033,-0.006 -0.0061,-0.01 -0.0062,-0.008 -2.65e-4,0.005 0.0088,0.0228 0.01055,0.0211 8.94e-4,-8.9e-4 -0.0011,-0.007 -0.0044,-0.0127 z m 0.469964,-0.0541 c 0,-0.002 -0.0025,4.9e-4 -0.0056,0.006 -0.0031,0.005 -0.0056,0.0115 -0.0056,0.0137 0,0.002 0.0025,-4.8e-4 0.0056,-0.006 0.0031,-0.005 0.0056,-0.0115 0.0056,-0.0137 z m -0.518799,-0.0475 c -0.0044,-0.008 -0.008,-0.0138 -0.0081,-0.0122 -2.77e-4,0.004 0.01279,0.0305 0.01448,0.0288 8.44e-4,-8.4e-4 -0.002,-0.008 -0.0064,-0.0165 z m 0.546143,-0.0111 c 0,-0.002 -0.0025,4.9e-4 -0.0056,0.006 -0.0031,0.005 -0.0056,0.0115 -0.0056,0.0137 0,0.002 0.0025,-4.9e-4 0.0056,-0.006 0.0031,-0.005 0.0056,-0.0115 0.0056,-0.0137 z m 0.02729,-0.0586 c 0,-0.002 -0.0034,0.002 -0.0075,0.01 -0.0041,0.008 -0.0075,0.0154 -0.0075,0.0176 0,0.002 0.0034,-0.002 0.0075,-0.01 0.0041,-0.008 0.0075,-0.0154 0.0075,-0.0176 z m -0.618362,-0.024 c -0.0054,-0.0104 -0.0099,-0.0177 -0.01004,-0.0161 -2.84e-4,0.004 0.01674,0.0382 0.0184,0.0365 8.17e-4,-8.2e-4 -0.0029,-0.01 -0.0084,-0.0204 z m 0.64185,-0.0267 c 0,-0.002 -0.0025,4.9e-4 -0.0056,0.006 -0.0031,0.005 -0.0056,0.0115 -0.0056,0.0137 0,0.002 0.0025,-4.9e-4 0.0056,-0.006 0.0031,-0.005 0.0056,-0.0115 0.0056,-0.0137 z m 0.0236,-0.0508 c 0,-0.002 -0.0017,-0.001 -0.0038,0.002 -0.0021,0.003 -0.0038,0.008 -0.0038,0.01 0,0.002 0.0017,10e-4 0.0038,-0.002 0.0021,-0.003 0.0038,-0.008 0.0038,-0.01 z m -0.706457,-0.008 c -0.0044,-0.008 -0.008,-0.0138 -0.0081,-0.0122 -2.77e-4,0.005 0.01279,0.0305 0.01448,0.0288 8.45e-4,-8.5e-4 -0.002,-0.008 -0.0064,-0.0166 z m 0.729737,-0.0424 c 0,-0.002 -0.0025,4.9e-4 -0.0056,0.006 -0.0031,0.005 -0.0056,0.0115 -0.0056,0.0137 0,0.002 0.0025,-4.8e-4 0.0056,-0.006 0.0031,-0.005 0.0056,-0.0115 0.0056,-0.0137 z m -0.76877,-0.0381 c -0.0039,-0.004 -0.0043,-0.003 -0.0022,0.002 0.0015,0.004 0.0037,0.006 0.0049,0.005 0.0012,-0.001 3e-6,-0.004 -0.0027,-0.007 z m 0.608891,-0.0342 c -0.03251,-0.004 -0.394835,-0.004 -0.433594,0 -0.01611,0.002 0.08057,0.003 0.214844,0.003 0.134277,4e-5 0.232714,-10e-4 0.21875,-0.003 z"
           id="path1335"
           inkscape:connector-curvature="0"
           transform="scale(0.26458333)" />
        <path
           style="fill:#000000;fill-opacity:1;stroke:#000000;stroke-width:0;stroke-miterlimit:4;stroke-dasharray:none;stroke-opacity:1"
           d="m 87.935213,389.36974 c -0.0084,-0.005 -0.01057,-0.009 -0.01207,-0.0247 -0.0024,-0.0255 -0.01036,-0.0424 -0.360041,-0.77151 l -0.07274,-0.15166 v -2.84736 -2.84737 h 0.455078 0.455078 v 2.84749 2.84749 l -0.180085,0.38591 c -0.256168,0.54895 -0.247785,0.52994 -0.241331,0.54726 0.0029,0.008 0.0017,0.01 -0.01014,0.0146 -0.0165,0.007 -0.02069,0.007 -0.03375,-2.3e-4 z m 0.06203,-0.17605 c -7.8e-4,-7.8e-4 -0.01093,0.0179 -0.02256,0.0414 -0.01856,0.0376 -0.02728,0.0503 -0.02728,0.0397 0,-0.002 -0.0027,-0.007 -0.0061,-0.0107 -0.0057,-0.007 -0.0058,-0.007 -0.0014,0.002 0.01092,0.023 0.01194,0.0223 0.03586,-0.0254 0.0126,-0.0251 0.02227,-0.0463 0.02149,-0.0471 z m -0.107992,-0.0354 c -0.01077,-0.0212 -0.01967,-0.0372 -0.01977,-0.0356 -2.96e-4,0.004 0.03633,0.0771 0.03796,0.0755 7.65e-4,-7.7e-4 -0.0074,-0.0187 -0.01818,-0.0399 z m 0.135897,-0.0229 c 0,-0.002 -0.006,0.008 -0.01329,0.0215 -0.0073,0.014 -0.01329,0.0271 -0.01329,0.0293 0,0.002 0.006,-0.008 0.01329,-0.0215 0.0073,-0.014 0.01329,-0.0271 0.01329,-0.0293 z m 0.02737,-0.0586 c 0,-0.002 -0.0042,0.004 -0.0094,0.0137 -0.0052,0.01 -0.0094,0.0193 -0.0094,0.0215 0,0.002 0.0042,-0.004 0.0094,-0.0137 0.0052,-0.01 0.0094,-0.0193 0.0094,-0.0215 z m -0.227712,-0.0514 c -0.0054,-0.0104 -0.0099,-0.0177 -0.01004,-0.0161 -2.84e-4,0.004 0.01674,0.0382 0.0184,0.0365 8.17e-4,-8.1e-4 -0.0029,-0.01 -0.0084,-0.0204 z m 0.258987,-0.015 c 0,-0.002 -0.0034,0.002 -0.0075,0.01 -0.0041,0.008 -0.0075,0.0154 -0.0075,0.0176 0,0.002 0.0034,-0.002 0.0075,-0.01 0.0041,-0.008 0.0075,-0.0154 0.0075,-0.0176 z m 0.02739,-0.0586 c 0,-0.002 -0.0025,4.9e-4 -0.0056,0.006 -0.0031,0.005 -0.0056,0.0115 -0.0056,0.0137 0,0.002 0.0025,-4.9e-4 0.0056,-0.006 0.0031,-0.005 0.0056,-0.0115 0.0056,-0.0137 z m -0.337152,-0.0319 c -0.0033,-0.006 -0.0061,-0.01 -0.0062,-0.008 -2.65e-4,0.005 0.0088,0.0228 0.01055,0.0211 8.94e-4,-9e-4 -0.0011,-0.007 -0.0044,-0.0127 z m 0.362356,-0.0191 c 0.0013,-0.003 6.79e-4,-0.005 -0.0015,-0.004 -0.0021,10e-4 -0.0039,0.004 -0.0039,0.006 0,0.006 0.0028,0.004 0.0054,-0.002 z m 0.02945,-0.0643 c 0.0044,-0.009 0.0043,-0.009 -0.0014,-0.002 -0.0033,0.004 -0.0061,0.009 -0.0061,0.0114 0,0.005 0.0018,0.003 0.0075,-0.009 z m -0.440608,-0.0167 c -0.0039,-0.004 -0.0043,-0.003 -0.0022,0.002 0.0015,0.004 0.0037,0.006 0.0049,0.005 0.0012,-0.001 3e-6,-0.004 -0.0027,-0.007 z m 0.471895,-0.0517 c 0,-0.002 -0.0025,4.9e-4 -0.0056,0.006 -0.0031,0.005 -0.0056,0.0115 -0.0056,0.0137 0,0.002 0.0025,-4.8e-4 0.0056,-0.006 0.0031,-0.005 0.0056,-0.0115 0.0056,-0.0137 z m -0.518778,-0.0476 c -0.0046,-0.008 -0.0057,-0.005 -0.0019,0.004 0.0013,0.003 0.0033,0.006 0.0043,0.005 0.001,-10e-4 -3.6e-5,-0.005 -0.0023,-0.009 z m 0.546399,-0.0105 c 0,-0.005 -0.0018,-0.003 -0.0075,0.009 -0.0044,0.009 -0.0043,0.009 0.0014,0.002 0.0033,-0.004 0.0061,-0.009 0.0061,-0.0114 z m 0.02332,-0.0513 c 0,-0.002 -0.0017,-10e-4 -0.0038,0.002 -0.0021,0.003 -0.0038,0.008 -0.0038,0.01 0,0.002 0.0017,0.001 0.0038,-0.002 0.0021,-0.003 0.0038,-0.008 0.0038,-0.01 z m -0.614652,-0.0319 c -0.0033,-0.006 -0.0061,-0.01 -0.0062,-0.008 -2.65e-4,0.005 0.0088,0.0228 0.01055,0.0211 8.94e-4,-8.9e-4 -0.0011,-0.007 -0.0044,-0.0127 z m 0.641996,-0.0267 c 0,-0.002 -0.0017,-0.001 -0.0038,0.002 -0.0021,0.003 -0.0038,0.008 -0.0038,0.01 0,0.002 0.0017,10e-4 0.0038,-0.002 0.0021,-0.003 0.0038,-0.008 0.0038,-0.01 z m 0.02344,-0.0508 c 0,-0.002 -0.0017,-10e-4 -0.0038,0.002 -0.0021,0.003 -0.0038,0.008 -0.0038,0.01 0,0.002 0.0017,0.001 0.0038,-0.002 0.0021,-0.003 0.0038,-0.008 0.0038,-0.01 z m -0.706435,-0.008 c -0.0046,-0.008 -0.0057,-0.005 -0.0019,0.004 0.0013,0.003 0.0033,0.006 0.0043,0.005 0.001,-0.001 -3.7e-5,-0.005 -0.0023,-0.009 z m 0.489758,-0.11455 c -0.0028,-0.005 -0.230868,-0.005 -0.292969,-1.9e-4 -0.02498,0.002 0.02122,0.003 0.12816,0.003 0.110649,4.3e-4 0.166406,-6.8e-4 0.164809,-0.003 z"
           id="path1337"
           inkscape:connector-curvature="0"
           transform="scale(0.26458333)" />
        <path
           style="fill:#000000;fill-opacity:1;stroke:#000000;stroke-width:0;stroke-miterlimit:4;stroke-dasharray:none;stroke-opacity:1"
           d="m 87.934703,389.36947 c -0.008,-0.004 -0.01074,-0.009 -0.01074,-0.0173 0,-0.0246 -0.0068,-0.0395 -0.272991,-0.59492 l -0.160602,-0.33514 v -2.84748 -2.84747 h 0.455078 0.455078 v 2.84775 2.84775 l -0.08249,0.17666 c -0.348857,0.74713 -0.340347,0.72829 -0.338754,0.75036 0.001,0.0141 -1.5e-5,0.0161 -0.01049,0.0206 -0.01504,0.006 -0.021,0.006 -0.03409,-8.4e-4 z m 0.04024,-0.12708 c 0.0109,-0.0217 0.01917,-0.0401 0.01838,-0.0409 -7.86e-4,-7.9e-4 -0.01005,0.0161 -0.02059,0.0375 -0.01054,0.0214 -0.01992,0.0389 -0.02084,0.0389 -9.23e-4,0 -0.0042,-0.003 -0.0072,-0.007 -0.005,-0.006 -0.0051,-0.006 -0.0013,0.002 0.0023,0.005 0.0059,0.009 0.008,0.009 0.0021,0 0.01265,-0.0178 0.02354,-0.0395 z m 0.04632,-0.0992 c 0,-0.002 -0.0042,0.004 -0.0094,0.0137 -0.0052,0.01 -0.0094,0.0193 -0.0094,0.0215 0,0.002 0.0042,-0.004 0.0094,-0.0137 0.0052,-0.01 0.0094,-0.0193 0.0094,-0.0215 z m -0.135918,0.007 c -0.0065,-0.0126 -0.01188,-0.0216 -0.01198,-0.02 -2.88e-4,0.004 0.02066,0.046 0.02232,0.0443 7.99e-4,-8e-4 -0.0039,-0.0117 -0.01034,-0.0243 z m 0.161265,-0.059 c 0.0036,-0.007 0.0056,-0.0127 0.0045,-0.0127 -0.0023,0 -0.01387,0.0217 -0.01387,0.0258 0,0.004 0.0021,0.001 0.0094,-0.0131 z m 0.03125,-0.0664 c 0.0036,-0.007 0.0056,-0.0127 0.0045,-0.0127 -0.0023,0 -0.01387,0.0217 -0.01387,0.0258 0,0.004 0.0021,10e-4 0.0094,-0.0131 z m -0.254986,-0.004 c -0.0046,-0.008 -0.0057,-0.005 -0.0019,0.004 0.0013,0.004 0.0033,0.006 0.0043,0.005 0.001,-10e-4 -3.7e-5,-0.005 -0.0023,-0.009 z m 0.284365,-0.0599 c 0.0044,-0.009 0.0043,-0.009 -0.0014,-0.002 -0.0033,0.004 -0.0061,0.009 -0.0061,0.0114 0,0.005 0.0018,0.003 0.0075,-0.009 z m 0.05879,-0.12695 c 0,-0.002 -0.0017,-10e-4 -0.0038,0.002 -0.0021,0.003 -0.0038,0.008 -0.0038,0.01 0,0.002 0.0017,0.001 0.0038,-0.002 0.0021,-0.003 0.0038,-0.008 0.0038,-0.01 z m 0.02671,-0.0587 c -0.0012,-10e-4 -0.0034,9.7e-4 -0.0049,0.005 -0.0021,0.006 -0.0017,0.006 0.0022,0.002 0.0027,-0.003 0.0039,-0.006 0.0027,-0.007 z m 0.05532,-0.11708 c 0,-0.002 -0.0017,-0.001 -0.0038,0.002 -0.0021,0.003 -0.0038,0.008 -0.0038,0.01 0,0.002 0.0017,10e-4 0.0038,-0.002 0.0021,-0.003 0.0038,-0.008 0.0038,-0.01 z m -0.232302,-0.2322 c 0.01972,-0.004 -0.120129,-0.004 -0.175781,-4.1e-4 -0.03014,0.002 -0.01631,0.003 0.06055,0.003 0.05478,2.3e-4 0.106641,-10e-4 0.115234,-0.003 z"
           id="path1339"
           inkscape:connector-curvature="0"
           transform="scale(0.26458333)" />
        <path
           style="fill:#000000;fill-opacity:1;stroke:#000000;stroke-width:0;stroke-miterlimit:4;stroke-dasharray:none;stroke-opacity:1"
           d="m 87.932642,389.36953 c -0.0056,-0.004 -0.0087,-0.0101 -0.0087,-0.0175 0,-0.024 -0.0024,-0.0291 -0.255894,-0.5585 l -0.177699,-0.37104 v -2.84767 -2.84766 h 0.455078 0.455078 v 2.84781 2.84781 l -0.162606,0.34848 c -0.260941,0.55922 -0.260479,0.55818 -0.258624,0.57971 9.56e-4,0.0111 -6.18e-4,0.0146 -0.0085,0.019 -0.01294,0.007 -0.02752,0.007 -0.03813,-4.4e-4 z m 0.02257,-0.0892 c 0,-8.4e-4 -0.0027,-0.003 -0.0061,-0.004 -0.0035,-10e-4 -0.005,-6.8e-4 -0.0037,0.002 0.0023,0.004 0.0097,0.005 0.0097,0.002 z m 0.01974,-0.0379 c 0.0088,-0.0174 0.01528,-0.0323 0.01451,-0.0331 -7.71e-4,-7.7e-4 -0.0088,0.0135 -0.0178,0.0317 -0.009,0.0182 -0.01555,0.0331 -0.01451,0.0331 0.001,0 0.009,-0.0142 0.0178,-0.0317 z m 0.04042,-0.0846 c 0.0036,-0.007 0.0056,-0.0127 0.0045,-0.0127 -0.0023,0 -0.01387,0.0217 -0.01387,0.0258 0,0.004 0.0021,10e-4 0.0094,-0.0131 z m 0.03332,-0.0732 c 0,-0.002 -0.0025,4.9e-4 -0.0056,0.006 -0.0031,0.005 -0.0056,0.0115 -0.0056,0.0137 0,0.002 0.0025,-4.9e-4 0.0056,-0.006 0.0031,-0.005 0.0056,-0.0115 0.0056,-0.0137 z m 0.03141,-0.0664 c 0,-0.002 -0.0017,-0.001 -0.0038,0.002 -0.0021,0.003 -0.0038,0.008 -0.0038,0.01 0,0.002 0.0017,10e-4 0.0038,-0.002 0.0021,-0.003 0.0038,-0.008 0.0038,-0.01 z m 0.02671,-0.0587 c -0.0012,-10e-4 -0.0034,9.6e-4 -0.0049,0.005 -0.0021,0.006 -0.0017,0.006 0.0022,0.002 0.0027,-0.003 0.0039,-0.006 0.0027,-0.007 z m -0.130903,-0.536 c -0.01548,-7.4e-4 -0.04185,-7.4e-4 -0.05859,0 -0.01675,7.3e-4 -0.0041,10e-4 0.02814,10e-4 0.03223,0 0.04593,-5.9e-4 0.03045,-10e-4 z"
           id="path1341"
           inkscape:connector-curvature="0"
           transform="scale(0.26458333)" />
        <path
           style="fill:#000000;fill-opacity:1;stroke:#000000;stroke-width:0;stroke-miterlimit:4;stroke-dasharray:none;stroke-opacity:1"
           d="m 87.932642,389.36953 c -0.0057,-0.004 -0.0087,-0.0101 -0.0087,-0.0179 0,-0.0228 -0.0072,-0.0385 -0.259221,-0.5647 l -0.174372,-0.36407 v -2.84784 -2.84784 h 0.455078 0.455078 v 2.84799 2.84799 l -0.18547,0.39768 c -0.235876,0.50577 -0.233863,0.50126 -0.234498,0.52497 -4.23e-4,0.0158 -0.0021,0.0199 -0.01,0.0243 -0.01274,0.007 -0.02736,0.007 -0.03792,-5.5e-4 z m 0.05344,-0.15212 c 0,-0.002 -0.006,0.008 -0.01329,0.0215 -0.0073,0.014 -0.01329,0.0272 -0.01329,0.0293 0,0.002 0.006,-0.008 0.01329,-0.0215 0.0073,-0.014 0.01329,-0.0272 0.01329,-0.0293 z m 0.03151,-0.0664 c 0,-0.002 -0.0017,-10e-4 -0.0038,0.002 -0.0021,0.003 -0.0038,0.008 -0.0038,0.01 0,0.002 0.0017,0.001 0.0038,-0.002 0.0021,-0.003 0.0038,-0.008 0.0038,-0.01 z m 0.02895,-0.0588 c 0.0013,-0.003 6.79e-4,-0.005 -0.0015,-0.004 -0.0021,10e-4 -0.0039,0.004 -0.0039,0.006 0,0.006 0.0028,0.004 0.0054,-0.002 z m 0.03125,-0.0664 c 0.0013,-0.003 6.79e-4,-0.005 -0.0015,-0.004 -0.0021,10e-4 -0.0039,0.004 -0.0039,0.006 0,0.006 0.0028,0.004 0.0054,-0.002 z"
           id="path1343"
           inkscape:connector-curvature="0"
           transform="scale(0.26458333)" />
        <path
           style="fill:#000000;fill-opacity:1;stroke:#000000;stroke-width:0;stroke-miterlimit:4;stroke-dasharray:none;stroke-opacity:1"
           d="m 87.933196,389.36992 c -0.0053,-0.004 -0.009,-0.0118 -0.01054,-0.0233 -0.0039,-0.0281 -0.02051,-0.064 -0.304731,-0.6571 l -0.127557,-0.26617 v -2.84809 -2.84808 h 0.455078 0.455078 v 2.84832 2.84832 l -0.183282,0.39289 c -0.236135,0.50619 -0.241674,0.51875 -0.236968,0.53751 0.0042,0.0168 -0.02941,0.0281 -0.04708,0.0157 z m 0.04174,-0.1275 c 0.0045,-0.009 0.0075,-0.0167 0.0067,-0.0175 -8.19e-4,-8.2e-4 -0.0053,0.006 -0.01,0.016 -0.01065,0.0219 -0.0078,0.0232 0.0033,10e-4 z m 0.04036,-0.0838 c 0.0013,-0.003 6.79e-4,-0.005 -0.0015,-0.004 -0.0021,10e-4 -0.0039,0.004 -0.0039,0.006 0,0.006 0.0028,0.004 0.0054,-0.002 z"
           id="path1345"
           inkscape:connector-curvature="0"
           transform="scale(0.26458333)" />
        <path
           style="fill:#000000;fill-opacity:1;stroke:#000000;stroke-width:0;stroke-miterlimit:4;stroke-dasharray:none;stroke-opacity:1"
           d="m 87.932642,389.36953 c -0.0048,-0.003 -0.0087,-0.0101 -0.0087,-0.015 0,-0.0258 0.0075,-0.01 -0.395063,-0.85039 l -0.03853,-0.0805 v -2.84824 -2.84824 h 0.455078 0.455078 l -10e-7,2.84863 -10e-7,2.84863 -0.173635,0.37203 c -0.248792,0.53305 -0.25059,0.53711 -0.246699,0.55657 0.0018,0.009 2.75e-4,0.0117 -0.0093,0.0167 -0.01461,0.008 -0.02733,0.007 -0.03828,-1.8e-4 z m 0.04601,-0.13594 c 0,-0.005 -0.0018,-0.003 -0.0075,0.009 -0.0044,0.009 -0.0043,0.009 0.0014,0.002 0.0033,-0.004 0.0061,-0.009 0.0061,-0.0114 z"
           id="path1347"
           inkscape:connector-curvature="0"
           transform="scale(0.26458333)" />
        <path
           style="fill:#000000;fill-opacity:1;stroke:#000000;stroke-width:0;stroke-miterlimit:4;stroke-dasharray:none;stroke-opacity:1"
           d="m 87.932642,389.36953 c -0.0051,-0.004 -0.0087,-0.0102 -0.0087,-0.0161 0,-0.0224 -0.01508,-0.0553 -0.269855,-0.58734 l -0.163738,-0.34197 v -2.84846 -2.84847 h 0.455078 0.455078 v 2.84866 2.84866 l -0.146731,0.31442 c -0.266265,0.57058 -0.277344,0.59542 -0.273665,0.61382 0.0019,0.009 4.38e-4,0.012 -0.0092,0.017 -0.01461,0.008 -0.02733,0.007 -0.03828,-1.8e-4 z"
           id="path1349"
           inkscape:connector-curvature="0"
           transform="scale(0.26458333)" />
        <path
           style="fill:#000000;fill-opacity:1;stroke:#000000;stroke-width:0;stroke-miterlimit:4;stroke-dasharray:none;stroke-opacity:1"
           d="m 87.933164,389.3699 c -0.005,-0.004 -0.0092,-0.0121 -0.01084,-0.0225 -0.0015,-0.009 -0.0097,-0.0333 -0.01839,-0.0535 -0.01692,-0.0396 -0.138174,-0.29513 -0.307765,-0.64858 l -0.105805,-0.22051 v -2.84883 -2.84882 h 0.455078 0.455078 v 2.84888 2.84889 l -0.169345,0.36303 c -0.24529,0.52583 -0.255342,0.54856 -0.250757,0.56682 0.0041,0.0163 -0.02998,0.0272 -0.04726,0.0151 z"
           id="path1351"
           inkscape:connector-curvature="0"
           transform="scale(0.26458333)" />
        <path
           style="fill:#000000;fill-opacity:1;stroke:#000000;stroke-width:0;stroke-miterlimit:4;stroke-dasharray:none;stroke-opacity:1"
           d="m 87.933164,389.3699 c -0.005,-0.004 -0.0092,-0.0121 -0.01082,-0.0224 -0.0045,-0.0284 -0.02787,-0.0788 -0.287096,-0.62017 l -0.144878,-0.30255 v -2.84881 -2.84882 h 0.455078 0.455078 v 2.84917 2.84918 l -0.168387,0.36078 c -0.242391,0.51935 -0.255761,0.54959 -0.251137,0.56802 0.0041,0.0165 -0.03042,0.0278 -0.04783,0.0156 z"
           id="path1353"
           inkscape:connector-curvature="0"
           transform="scale(0.26458333)" />
        <path
           style="fill:#000000;fill-opacity:1;stroke:#000000;stroke-width:0;stroke-miterlimit:4;stroke-dasharray:none;stroke-opacity:1"
           d="m 87.932642,389.36953 c -0.0048,-0.003 -0.0087,-0.009 -0.0087,-0.0135 0,-0.0223 -0.01896,-0.0638 -0.252558,-0.5524 l -0.181035,-0.37867 v -2.84887 -2.84888 h 0.455078 0.455078 v 2.84917 2.84917 l -0.166437,0.35688 c -0.240537,0.51577 -0.252552,0.54275 -0.25258,0.56702 -1.6e-5,0.0123 -0.0019,0.0158 -0.01101,0.0205 -0.0142,0.007 -0.02699,0.007 -0.03785,-4e-4 z"
           id="path1355"
           inkscape:connector-curvature="0"
           transform="scale(0.26458333)" />
        <path
           style="fill:#000000;fill-opacity:1;stroke:#000000;stroke-width:0;stroke-miterlimit:4;stroke-dasharray:none;stroke-opacity:1"
           d="m 87.933178,389.36991 c -0.0045,-0.003 -0.0091,-0.0117 -0.01031,-0.019 -0.0048,-0.0298 -0.02719,-0.0783 -0.272937,-0.59199 l -0.159563,-0.33354 v -2.84908 -2.84907 h 0.455078 0.455078 v 2.84936 2.84936 l -0.150874,0.32349 c -0.257117,0.55129 -0.267095,0.57365 -0.267095,0.59856 0,0.0135 -0.0017,0.0166 -0.01152,0.0217 -0.0145,0.007 -0.02739,0.008 -0.03785,2.5e-4 z"
           id="path1357"
           inkscape:connector-curvature="0"
           transform="scale(0.26458333)" />
        <path
           style="fill:#000000;fill-opacity:1;stroke:#000000;stroke-width:0;stroke-miterlimit:4;stroke-dasharray:none;stroke-opacity:1"
           d="m 87.933095,389.36985 c -0.0046,-0.003 -0.0094,-0.0123 -0.01097,-0.0205 -0.0058,-0.0311 -0.03265,-0.0893 -0.275088,-0.59616 l -0.156667,-0.3275 v -2.84925 -2.84925 h 0.455078 0.455078 v 2.84967 2.84968 l -0.162582,0.34856 c -0.239183,0.5128 -0.255387,0.5493 -0.255387,0.57518 0,0.0109 -0.0022,0.0145 -0.01152,0.0194 -0.01453,0.008 -0.02739,0.008 -0.03793,1.9e-4 z"
           id="path1359"
           inkscape:connector-curvature="0"
           transform="scale(0.26458333)" />
        <path
           style="fill:#000000;fill-opacity:1;stroke:#000000;stroke-width:0;stroke-miterlimit:4;stroke-dasharray:none;stroke-opacity:1"
           d="m 87.933095,389.36985 c -0.0046,-0.003 -0.0094,-0.0122 -0.01092,-0.0205 -0.0053,-0.0292 -0.03798,-0.0999 -0.278984,-0.60383 l -0.152822,-0.31955 v -2.84939 -2.84939 h 0.455078 0.455078 v 2.84964 2.84965 l -0.160701,0.34469 c -0.239863,0.51449 -0.257268,0.55366 -0.257268,0.57905 0,0.011 -0.0021,0.0146 -0.01152,0.0195 -0.01453,0.008 -0.02739,0.008 -0.03793,1.9e-4 z"
           id="path1361"
           inkscape:connector-curvature="0"
           transform="scale(0.26458333)" />
        <path
           style="fill:#000000;fill-opacity:1;stroke:#000000;stroke-width:0;stroke-miterlimit:4;stroke-dasharray:none;stroke-opacity:1"
           d="m 87.933202,389.37011 c -0.0046,-0.003 -0.0095,-0.0123 -0.01094,-0.0199 -0.0057,-0.0303 -0.03736,-0.0988 -0.281039,-0.60843 l -0.150857,-0.31547 v -2.84957 -2.84956 h 0.455078 0.455078 v 2.84991 2.84991 l -0.158737,0.34052 c -0.24317,0.52164 -0.259232,0.5577 -0.259232,0.58199 0,0.007 -0.0026,0.0156 -0.0057,0.0182 -0.0094,0.008 -0.03428,0.009 -0.04365,0.002 z"
           id="path1363"
           inkscape:connector-curvature="0"
           transform="scale(0.26458333)" />
        <path
           style="fill:#000000;fill-opacity:1;stroke:#000000;stroke-width:0;stroke-miterlimit:4;stroke-dasharray:none;stroke-opacity:1"
           d="m 87.932783,389.36878 c -0.0042,-0.004 -0.0098,-0.0147 -0.01248,-0.0244 -0.01046,-0.0382 -0.0455,-0.11377 -0.282896,-0.61022 l -0.147037,-0.30749 v -2.84974 -2.84974 h 0.455078 0.455078 v 2.85023 2.85024 l -0.156595,0.33581 c -0.239325,0.51323 -0.255948,0.55037 -0.260524,0.58216 -0.0023,0.0159 -0.0049,0.0211 -0.01261,0.025 -0.0137,0.007 -0.02903,0.006 -0.03801,-0.002 z"
           id="path1365"
           inkscape:connector-curvature="0"
           transform="scale(0.26458333)" />
        <path
           style="fill:#000000;fill-opacity:1;stroke:#000000;stroke-width:0;stroke-miterlimit:4;stroke-dasharray:none;stroke-opacity:1"
           d="m 87.933137,389.36988 c -0.0046,-0.003 -0.01023,-0.0139 -0.01286,-0.0244 -0.0088,-0.0353 -0.04739,-0.11855 -0.284825,-0.61504 l -0.145085,-0.30339 v -2.84993 -2.84993 h 0.455078 0.455078 v 2.85023 2.85023 l -0.15487,0.33239 c -0.239394,0.51379 -0.258751,0.55715 -0.262225,0.58741 -0.0013,0.011 -0.0047,0.0187 -0.01008,0.0225 -0.01047,0.007 -0.02973,0.007 -0.04021,-4e-5 z"
           id="path1367"
           inkscape:connector-curvature="0"
           transform="scale(0.26458333)" />
        <path
           style="fill:#000000;fill-opacity:1;stroke:#000000;stroke-width:0;stroke-miterlimit:4;stroke-dasharray:none;stroke-opacity:1"
           d="m 87.93275,389.36878 c -0.0042,-0.004 -0.01152,-0.0189 -0.01619,-0.0337 -0.01296,-0.041 -0.09645,-0.21932 -0.367061,-0.78402 l -0.05913,-0.12339 v -2.85025 -2.85024 h 0.455078 0.455078 v 2.85053 2.85054 l -0.153026,0.32817 c -0.236834,0.50792 -0.259234,0.55808 -0.263679,0.59051 -0.0027,0.0199 -0.01221,0.0287 -0.031,0.0287 -0.0068,0 -0.01583,-0.003 -0.02007,-0.007 z"
           id="path1369"
           inkscape:connector-curvature="0"
           transform="scale(0.26458333)" />
        <path
           style="fill:#000000;fill-opacity:1;stroke:#000000;stroke-width:0;stroke-miterlimit:4;stroke-dasharray:none;stroke-opacity:1"
           d="m 87.93274,389.36878 c -0.0042,-0.004 -0.01171,-0.0191 -0.0166,-0.0342 -0.01398,-0.043 -0.106165,-0.23991 -0.364866,-0.7793 l -0.06089,-0.12695 -1e-5,-2.85059 -1.1e-5,-2.85058 h 0.455078 0.455078 v 2.85083 2.85084 l -0.129286,0.27709 c -0.254287,0.54501 -0.283048,0.6091 -0.287311,0.6402 -0.0028,0.0207 -0.01206,0.0295 -0.0311,0.0295 -0.0068,0 -0.01584,-0.003 -0.02008,-0.007 z"
           id="path1371"
           inkscape:connector-curvature="0"
           transform="scale(0.26458333)" />
      </g>
      <path
         transform="matrix(0.2,0,0,0.2,8.4795528,78.495786)"
         inkscape:original-d="m 25.818236,101.7262 c 0.417316,-0.37054 0.834367,-0.74082 1.251155,-1.11084 0.463777,0.68137 0.927912,1.36392 1.391473,2.04628 0.452435,-0.62004 0.904525,-1.23972 1.356391,-1.85919"
         inkscape:path-effect="#path-effect1419"
         inkscape:connector-curvature="0"
         id="path1417"
         d="m 25.818236,101.7262 c 0.417329,-0.37053 0.83438,-0.74081 1.274504,-0.58503 0.440124,0.15577 0.904259,0.83832 1.362383,0.86935 0.458125,0.031 0.910217,-0.58864 1.362132,-1.20807"
         style="fill:none;stroke:#000000;stroke-width:0.26458332px;stroke-linecap:butt;stroke-linejoin:miter;stroke-opacity:1" />
    </g>
  </g>
</svg>
